{
	"asset":{
		"generator":"Khronos glTF Blender I/O v3.6.27",
		"version":"2.0"
	},
	"scene":0,
	"scenes":[
		{
			"name":"Scene",
			"nodes":[
				0
			]
		}
	],
	"nodes":[
		{
			"mesh":0,
			"name":"submesh_00_LOD_1"
		}
	],
	"materials":[
		{
			"alphaMode":"BLEND",
			"doubleSided":true,
			"name":"w_katana__common__grip1_04_default_masksset",
			"normalTexture":{
				"index":0
			},
			"pbrMetallicRoughness":{
				"baseColorTexture":{
					"index":1
				},
				"metallicRoughnessTexture":{
					"index":2
				}
			}
		}
	],
	"meshes":[
		{
			"name":"submesh_00_LOD_1.001",
			"primitives":[
				{
					"attributes":{
						"COLOR_0":0,
						"POSITION":1,
						"NORMAL":2,
						"TEXCOORD_0":3,
						"TEXCOORD_1":4
					},
					"indices":5,
					"material":0
				}
			]
		}
	],
	"textures":[
		{
			"sampler":0,
			"source":0
		},
		{
			"sampler":0,
			"source":0
		},
		{
			"sampler":0,
			"source":1
		}
	],
	"images":[
		{
			"bufferView":6,
			"mimeType":"image/png",
			"name":"w_katana__common__grip1_04_default_masksset_1"
		},
		{
			"bufferView":7,
			"mimeType":"image/png",
			"name":"w_katana__common__grip1_04_default_masksset_1"
		}
	],
	"accessors":[
		{
			"bufferView":0,
			"componentType":5123,
			"count":11765,
			"normalized":true,
			"type":"VEC4"
		},
		{
			"bufferView":1,
			"componentType":5126,
			"count":11765,
			"max":[
				0.038094211369752884,
				0.8782862424850464,
				0.057010602205991745
			],
			"min":[
				-0.038094211369752884,
				-0.2709600627422333,
				-0.03815591707825661
			],
			"type":"VEC3"
		},
		{
			"bufferView":2,
			"componentType":5126,
			"count":11765,
			"type":"VEC3"
		},
		{
			"bufferView":3,
			"componentType":5126,
			"count":11765,
			"type":"VEC2"
		},
		{
			"bufferView":4,
			"componentType":5126,
			"count":11765,
			"type":"VEC2"
		},
		{
			"bufferView":5,
			"componentType":5123,
			"count":59157,
			"type":"SCALAR"
		}
	],
	"bufferViews":[
		{
			"buffer":0,
			"byteLength":94120,
			"byteOffset":0,
			"target":34962
		},
		{
			"buffer":0,
			"byteLength":141180,
			"byteOffset":94120,
			"target":34962
		},
		{
			"buffer":0,
			"byteLength":141180,
			"byteOffset":235300,
			"target":34962
		},
		{
			"buffer":0,
			"byteLength":94120,
			"byteOffset":376480,
			"target":34962
		},
		{
			"buffer":0,
			"byteLength":94120,
			"byteOffset":470600,
			"target":34962
		},
		{
			"buffer":0,
			"byteLength":118314,
			"byteOffset":564720,
			"target":34963
		},
		{
			"buffer":0,
			"byteLength":6388,
			"byteOffset":683036
		},
		{
			"buffer":0,
			"byteLength":15815,
			"byteOffset":689424
		}
	],
	"samplers":[
		{
			"magFilter":9729,
			"minFilter":9987
		}
	],
	"buffers":[
		{
			"byteLength":705240,
			"uri":"data:application/octet-stream;base64,"
		}
	]
}
